<?xml version="1.0" ?><svg viewBox="0 0 64 64" xmlns="http://www.w3.org/2000/svg"><title/><g data-name="27-scientist" id="_27-scientist"><path d="M19,49l-1.723,1.34C12.486,54.067,6.926,55.683,1,57v6H63V57c-5.926-1.317-11.486-2.933-16.277-6.66L45,49" style="fill:#05748c"/><path d="M13,16V11a2,2,0,0,1,2-2h0V7a2,2,0,0,1,2-2h0a4,4,0,0,1,4-4H43a4,4,0,0,1,4,4h0a2,2,0,0,1,2,2V9h0a2,2,0,0,1,2,2v5" style="fill:#a67c52"/><path d="M46,16H18V10h0a98.965,98.965,0,0,1,28,0h0Z" style="fill:#ffccb8"/><path d="M42,44h4A10,10,0,0,1,36,54H28A10,10,0,0,1,18,44h4" style="fill:#ccc"/><path d="M45,34l-.53,2-.27,1-1.7,6.39A7.566,7.566,0,0,1,35.19,49H28.81a7.566,7.566,0,0,1-7.31-5.61L19.8,37l-.27-1L19,34h9l4-3,4,3Z" style="fill:#ffccb8"/><polygon points="49 34 36 34 32 31 28 34 15 34 11 29 11 16 53 16 53 29 49 34" style="fill:#90c8e3"/><polygon points="28 21 21 21 17 26 11 26 11 16 26 16 28 21" style="fill:#d4e4f4"/><polygon points="36 21 43 21 47 26 53 26 53 16 38 16 36 21" style="fill:#d4e4f4"/><polygon points="36 22 28 22 26 16 38 16 36 22" style="fill:#25507a"/><rect height="2" width="10" x="27" y="39"/><rect height="2" width="4" x="30" y="43"/><path d="M63.217,56.023c-6.35-1.41-11.48-3.05-15.881-6.472l-1.32-1.028A10.926,10.926,0,0,0,47,44a1,1,0,0,0-1-1H43.635l2.133-8H49a1,1,0,0,0,.781-.375l4-5A1,1,0,0,0,54,29V16a1,1,0,0,0-1-1H52V11a3.006,3.006,0,0,0-2-2.829V7a3.006,3.006,0,0,0-2.073-2.854A5.008,5.008,0,0,0,43,0H21a5.008,5.008,0,0,0-4.927,4.146A3.006,3.006,0,0,0,14,7V8.171A3.006,3.006,0,0,0,12,11v4H11a1,1,0,0,0-1,1V29a1,1,0,0,0,.219.625l4,5A1,1,0,0,0,15,35h3.232l2.133,8H18a1,1,0,0,0-1,1,10.926,10.926,0,0,0,.984,4.523l-1.32,1.028c-4.4,3.422-9.531,5.062-15.881,6.472A1,1,0,0,0,0,57v6a1,1,0,0,0,1,1H63a1,1,0,0,0,1-1V57A1,1,0,0,0,63.217,56.023ZM52,17v8H47.48l-3.7-4.625A1,1,0,0,0,43,20H37.721l1-3H52ZM26,15H19V10.871a98.064,98.064,0,0,1,26,0V15H26Zm10.613,2-1.334,4H28.721l-1.334-4ZM14,11a1,1,0,0,1,1-1,1,1,0,0,0,1-1V7a1,1,0,0,1,1-1,1,1,0,0,0,1-1,3,3,0,0,1,3-3H43a3,3,0,0,1,3,3,1,1,0,0,0,1,1,1,1,0,0,1,1,1V9a1,1,0,0,0,1,1,1,1,0,0,1,1,1v4H47V10a1,1,0,0,0-.858-.99,100,100,0,0,0-28.284,0A1,1,0,0,0,17,10v5H14Zm-2,6H25.279l1,3H21a1,1,0,0,0-.781.375L16.52,25H12Zm0,11.649V27h5a1,1,0,0,0,.781-.375L21.48,22h5.466l.1.316A1,1,0,0,0,28,23h8a1,1,0,0,0,.949-.684L37.054,22H42.52l3.7,4.625A1,1,0,0,0,47,27h5v1.649L48.52,33H36.333L32.6,30.2a1,1,0,0,0-1.2,0L27.667,33H15.48ZM28,35a1,1,0,0,0,.6-.2L32,32.25l3.4,2.55a1,1,0,0,0,.6.2h7.7l-2.167,8.128A6.571,6.571,0,0,1,35.189,48H28.811a6.571,6.571,0,0,1-6.342-4.872L20.3,35ZM21.024,45a8.579,8.579,0,0,0,7.787,5h6.378a8.579,8.579,0,0,0,7.787-5h1.969A9.013,9.013,0,0,1,36,53H28a9.013,9.013,0,0,1-8.945-8ZM62,62H2V57.8c6.256-1.433,11.383-3.165,15.891-6.671l1.091-.848A10.99,10.99,0,0,0,28,55h8a10.99,10.99,0,0,0,9.018-4.719l1.091.848C50.617,54.635,55.744,56.367,62,57.8Z"/></g></svg>