<?xml version="1.0" ?><svg height="128" viewBox="0 0 128 128" width="128" xmlns="http://www.w3.org/2000/svg"><defs><style>.cls-1{fill:#f86464;}.cls-2,.cls-3,.cls-4,.cls-6{fill:none;stroke:#263357;}.cls-2,.cls-4,.cls-6{stroke-linecap:round;stroke-linejoin:round;}.cls-2,.cls-3{stroke-width:3px;}.cls-3{stroke-miterlimit:10;}.cls-4{stroke-width:3.1px;}.cls-5{fill:#61c4f2;}.cls-6{stroke-width:2.99px;}.cls-7{fill:#263357;}</style></defs><title/><g id="icons"><polygon class="cls-1" points="50.74 75.36 63.6 80.01 55.68 88.24 49.23 75.47 50.74 75.36"/><polygon class="cls-1" points="79.41 75.36 66.54 80.01 74.46 88.24 80.92 75.47 79.41 75.36"/><line class="cls-2" x1="39.57" x2="39.57" y1="110.36" y2="98.36"/><path class="cls-2" d="M26,101.89A29.64,29.64,0,0,1,50.37,74.66c.15,0,.29,0,.42-.07"/><path class="cls-2" d="M95.27,83.68a30.51,30.51,0,0,0-3.56-3.26,29.74,29.74,0,0,0-13-5.76"/><path class="cls-2" d="M26,102.09a58.47,58.47,0,0,0,38.36,14.27h.13a58.85,58.85,0,0,0,15.92-2.21"/><path class="cls-3" d="M50.74,74.61a20.89,20.89,0,0,0,28,0"/><path class="cls-2" d="M47.37,75.36c2.6,4.6,5.23,9.2,7.84,13.8,3-2.88,6.07-5.75,9.1-8.63"/><path class="cls-2" d="M65.25,80.53c3,2.88,6,5.75,9.1,8.63q3.89-6.84,7.76-13.68"/><line class="cls-2" x1="47.56" x2="65.4" y1="75.96" y2="106.84"/><line class="cls-2" x1="65.44" x2="81.35" y1="106.44" y2="76.33"/><rect class="cls-4" height="6" width="19" x="91.57" y="93.36"/><path class="cls-5" d="M83.65,104.59a34.21,34.21,0,0,1,7.72-.23c6.76.55,9.32,2.79,14.17,2.88,2.63,0,6.58-.52,11.53-3.81v7.84l-1.87,1.85L86.7,113l-2.93-2.88Z"/><path class="cls-6" d="M93.57,99.36h15a9,9,0,0,1,9,9v.75a4.26,4.26,0,0,1-4.26,4.26H88.82a4.26,4.26,0,0,1-4.26-4.26v-.75A9,9,0,0,1,93.57,99.36Z"/><path class="cls-1" d="M115.28,68.62h0a1.15,1.15,0,0,1,.72-1.46l6.62-2.23a39.14,39.14,0,0,0-.77-17.1A38,38,0,0,0,99.24,93.47,38.66,38.66,0,0,0,119.32,75a37.23,37.23,0,0,0,2.74-7.45l-5.32,1.8A1.15,1.15,0,0,1,115.28,68.62Z"/><path class="cls-2" d="M109.85,70.65A190.26,190.26,0,0,0,94.64,109.2"/><path class="cls-5" d="M37,44.86a13.53,13.53,0,0,0-13-13h-2a13.54,13.54,0,0,0-13,13h0v2h0a13.53,13.53,0,0,0,13,13v0h2a13.53,13.53,0,0,0,13-13h0v-2ZM17.86,34.45a14.34,14.34,0,0,0-2.2,4.41h-2.8a12.06,12.06,0,0,1,5-4.41ZM11.8,40.86h3.51a24,24,0,0,0-.49,4h-4a12.66,12.66,0,0,1,1-4Zm-1,6h4a24.17,24.17,0,0,0,.49,4H11.8a12.73,12.73,0,0,1-1-4Zm2,5h2.79a14.69,14.69,0,0,0,2.21,4.41,12.2,12.2,0,0,1-5-4.41Zm9.21,5.48c-1.93-.51-3.58-2.57-4.58-5.48h4.58Zm0-6.48H16.6a22.76,22.76,0,0,1-.51-4h6Zm0-6h-6a22.64,22.64,0,0,1,.51-4h5.47Zm0-6H17.49c1-2.91,2.65-5,4.58-5.48Zm11.25,0H30.53a14.34,14.34,0,0,0-2.2-4.41,12,12,0,0,1,5,4.41Zm-9.25-5.48c1.92.51,3.57,2.57,4.58,5.48H24.07Zm0,7.48h5.46a23.59,23.59,0,0,1,.52,4h-6Zm0,6h6a22.74,22.74,0,0,1-.52,4H24.07Zm0,10.48V51.86h4.58c-1,2.91-2.66,5-4.58,5.48Zm4.26-1.07a14.8,14.8,0,0,0,2.2-4.41h2.79a12.17,12.17,0,0,1-5,4.41Zm6.05-5.41H30.87a24.16,24.16,0,0,0,.5-4h4a13,13,0,0,1-1,4Zm-3-6a24,24,0,0,0-.5-4h3.51a13,13,0,0,1,1,4Z"/><path class="cls-2" d="M40.37,55.14a19.65,19.65,0,0,1-2.69,3.76,8.74,8.74,0,0,0,2.84,8.82,13.27,13.27,0,0,1-8.17-.51,13.46,13.46,0,0,1-4.1-2.57,20,20,0,0,1-5.16.68A19.73,19.73,0,0,1,3.5,48a17.09,17.09,0,0,1-.15-2.38A19.74,19.74,0,0,1,35.19,30a28.69,28.69,0,0,1,3.47,3.6"/><circle class="cls-7" cx="92.63" cy="36.45" r="1.55"/><path class="cls-2" d="M45.38,50.49c-.32-1.65-2.46-1-3.4-4.89-1.36-5.68,1.41-6.54,3-5.42"/><path class="cls-2" d="M84,50.49c.33-1.65,2.46-1,3.4-4.89,1.36-5.68-1.41-6.54-3-5.42"/><path class="cls-2" d="M45.38,50.49c1.81,12,9.77,21.11,19.32,21.11S82.21,62.53,84,50.49"/><line class="cls-2" x1="55.57" x2="60.57" y1="48.36" y2="48.36"/><line class="cls-2" x1="70.57" x2="74.57" y1="48.36" y2="48.36"/><path class="cls-2" d="M59.63,62a7.81,7.81,0,0,0,10.14,0"/><path class="cls-2" d="M73.39,9.88a19.21,19.21,0,0,1,5.14,1.21l.38.15.37.19c8.71,4.62,12.36,11.91,13,19.16"/><path class="cls-2" d="M83.23,42.89a18,18,0,0,0,1.44-3.58c1.19-4.2,3.11-15.62-8.6-21.83a11.7,11.7,0,0,0-6.3-.67c-1.78-3.7-4.65-5.15-5.95-5.34-.67,5.06-10.65,7-15,12.16-6.34,7.53-4.54,15.53-2.17,19.26"/><path class="cls-2" d="M46.6,42.89a23,23,0,0,1,1.56-6.51,22.69,22.69,0,0,1,2.46-4.55c9,4.77,18.24,5.18,23.63.61A5.31,5.31,0,0,0,76.5,28c1.18,1.16,4,3.22,5.29,6.25a19.47,19.47,0,0,1,1.44,8.67"/></g></svg>
