<?xml version="1.0" ?><svg viewBox="0 0 64 64" xmlns="http://www.w3.org/2000/svg"><title/><g id="rocket"><circle cx="51" cy="44" r="1" style="fill:#4c241d"/><circle cx="26" cy="40" r="19" style="fill:#fcf1c3"/><path d="M60.276,12.861l-23.55,23.55-8.485-8.486L51.79,4.376a1.684,1.684,0,0,1,1.189-.492h6.108a1.681,1.681,0,0,1,1.681,1.681v6.108A1.679,1.679,0,0,1,60.276,12.861Z" style="fill:#fff;stroke:#4c241d;stroke-linecap:round;stroke-linejoin:round;stroke-width:2px"/><path d="M46.626,9.541,31.07,25.1,25.413,19.44l4.755-4.755a10.32,10.32,0,0,1,7.3-3.023h0a10.292,10.292,0,0,0,2.715-.364Z" style="fill:#fff;stroke:#4c241d;stroke-linecap:round;stroke-linejoin:round;stroke-width:2px"/><path d="M55.111,18.026,39.555,33.582l5.657,5.657,4.755-4.755a10.32,10.32,0,0,0,3.023-7.3h0a10.292,10.292,0,0,1,.364-2.715Z" style="fill:#fff;stroke:#4c241d;stroke-linecap:round;stroke-linejoin:round;stroke-width:2px"/><rect height="8" style="fill:#f53e28;stroke:#4c241d;stroke-linecap:round;stroke-linejoin:round;stroke-width:2px" transform="translate(-8.535 26.052) rotate(-45)" width="3" x="25.681" y="19.329"/><rect height="8" style="fill:#f53e28;stroke:#4c241d;stroke-linecap:round;stroke-linejoin:round;stroke-width:2px" transform="translate(-14.393 40.195) rotate(-45)" width="3" x="39.823" y="33.471"/><polygon points="35.312 34.996 33.191 38.532 26.12 31.461 29.655 29.34 35.312 34.996" style="fill:#f53e28;stroke:#4c241d;stroke-linecap:round;stroke-linejoin:round;stroke-width:2px"/><rect height="4" rx="2" ry="2" style="fill:#fff;stroke:#4c241d;stroke-linecap:round;stroke-linejoin:round;stroke-width:2px" transform="translate(-9.696 33.856) rotate(-45)" width="12" x="30.019" y="26.632"/><path d="M53.258,6.894h0a3,3,0,0,1,3,3v0a3,3,0,0,1-3,3h0a0,0,0,0,1,0,0v-6A0,0,0,0,1,53.258,6.894Z" style="fill:#00ccca;stroke:#4c241d;stroke-linecap:round;stroke-linejoin:round;stroke-width:2px" transform="translate(9.042 41.617) rotate(-45)"/><line style="fill:none;stroke:#4c241d;stroke-linecap:round;stroke-linejoin:round;stroke-width:2px" x1="10.586" x2="13.414" y1="10.586" y2="13.414"/><line style="fill:none;stroke:#4c241d;stroke-linecap:round;stroke-linejoin:round;stroke-width:2px" x1="13.414" x2="10.586" y1="10.586" y2="13.414"/><line style="fill:none;stroke:#4c241d;stroke-linecap:round;stroke-linejoin:round;stroke-width:2px" x1="56.586" x2="59.414" y1="38.586" y2="41.414"/><line style="fill:none;stroke:#4c241d;stroke-linecap:round;stroke-linejoin:round;stroke-width:2px" x1="59.414" x2="56.586" y1="38.586" y2="41.414"/><line style="fill:none;stroke:#4c241d;stroke-linecap:round;stroke-linejoin:round;stroke-width:2px" x1="7.028" x2="12.685" y1="51.967" y2="57.624"/><line style="fill:none;stroke:#4c241d;stroke-linecap:round;stroke-linejoin:round;stroke-width:2px" x1="30.362" x2="36.019" y1="44.189" y2="49.846"/><line style="fill:none;stroke:#4c241d;stroke-linecap:round;stroke-linejoin:round;stroke-width:2px" x1="27.534" x2="33.191" y1="47.017" y2="52.674"/><line style="fill:none;stroke:#4c241d;stroke-linecap:round;stroke-linejoin:round;stroke-width:2px" x1="16.22" x2="21.877" y1="42.775" y2="48.431"/><line style="fill:none;stroke:#4c241d;stroke-linecap:round;stroke-linejoin:round;stroke-width:2px" x1="4.2" x2="9.856" y1="54.795" y2="60.452"/><rect height="8" rx="2" ry="2" style="fill:none;stroke:#4c241d;stroke-linecap:round;stroke-linejoin:round;stroke-width:2px" transform="translate(-31.263 24.923) rotate(-45)" width="5" x="11.953" y="46.199"/><rect height="8" rx="2" ry="2" style="fill:none;stroke:#4c241d;stroke-linecap:round;stroke-linejoin:round;stroke-width:2px" transform="translate(-30.949 34.165) rotate(-45)" width="5" x="23.266" y="50.442"/><line style="fill:none;stroke:#4c241d;stroke-linecap:round;stroke-linejoin:round;stroke-width:2px" x1="14.806" x2="20.463" y1="28.632" y2="34.289"/><line style="fill:none;stroke:#4c241d;stroke-linecap:round;stroke-linejoin:round;stroke-width:2px" x1="11.978" x2="17.635" y1="31.461" y2="37.118"/><rect height="8" rx="2" ry="2" style="fill:none;stroke:#4c241d;stroke-linecap:round;stroke-linejoin:round;stroke-width:2px" transform="translate(-24.506 18.609) rotate(-45)" width="5" x="7.71" y="34.886"/><rect height="8" rx="2" ry="2" style="fill:none;stroke:#4c241d;stroke-linecap:round;stroke-linejoin:round;stroke-width:2px" transform="translate(-22.071 28.73) rotate(-45)" width="5" x="21.145" y="37.007"/></g></svg>